<?xml version="1.0" standalone="no"?>
<!DOCTYPE svg PUBLIC "-//W3C//DTD SVG 20010904//EN"
 "http://www.w3.org/TR/2001/REC-SVG-20010904/DTD/svg10.dtd">
<svg version="1.0" xmlns="http://www.w3.org/2000/svg"
 width="3456.000000pt" height="1440.000000pt" viewBox="0 0 3456.000000 1440.000000"
 preserveAspectRatio="xMidYMid meet">
<metadata>
Created by potrace 1.16, written by Peter Selinger 2001-2019
</metadata>
<g transform="translate(0.000000,1440.000000) scale(0.100000,-0.100000)"
fill="#000000" stroke="none">
<path d="M4275 10685 c-54 -32 -89 -73 -110 -128 -18 -48 -14 -102 7 -95 6 2
21 33 32 68 17 53 29 70 63 97 75 56 170 57 237 1 73 -60 95 -153 55 -236 -24
-49 -87 -96 -144 -106 -19 -4 -39 -16 -45 -26 -6 -12 -10 -71 -9 -140 2 -73
-2 -125 -8 -131 -6 -6 -36 -17 -68 -25 -182 -48 -326 -178 -398 -362 -25 -65
-31 -95 -35 -187 -5 -136 7 -201 59 -304 52 -104 137 -185 254 -242 82 -39
159 -61 475 -133 133 -30 190 -55 298 -127 245 -165 397 -379 462 -650 106
-443 -10 -939 -287 -1225 -141 -147 -293 -230 -508 -280 -119 -28 -364 -25
-500 5 -283 64 -486 203 -714 490 -122 153 -190 338 -211 571 -41 483 234 945
692 1160 106 49 124 76 48 70 -76 -6 -332 -181 -455 -311 -159 -168 -272 -396
-310 -627 -25 -150 -17 -371 18 -505 58 -221 150 -378 317 -547 263 -264 562
-391 925 -391 269 0 498 70 724 221 100 67 252 211 324 307 97 128 172 298
208 471 27 135 27 362 -2 503 -88 431 -355 800 -703 973 -104 51 -184 75 -374
111 -293 56 -429 140 -494 303 -18 48 -22 77 -23 177 0 114 2 123 31 186 39
83 88 137 154 173 224 122 505 36 615 -188 52 -106 63 -226 39 -400 -9 -61 8
-56 39 13 15 34 22 74 25 151 5 125 -7 193 -52 286 -82 171 -227 280 -413 310
-48 7 -91 18 -97 24 -7 7 -11 56 -11 120 0 123 2 126 75 154 57 22 86 49 116
108 33 65 33 151 0 216 -26 52 -42 68 -99 100 -55 32 -166 30 -222 -3z"/>
<path d="M4226 8480 c-18 -17 -37 -41 -40 -55 -14 -56 44 -125 104 -125 31 0
76 29 89 57 33 73 -16 153 -93 153 -14 0 -41 -14 -60 -30z"/>
<path d="M3790 8454 c-72 -31 -110 -86 -110 -158 0 -58 14 -93 52 -133 57 -59
140 -67 222 -20 49 28 76 77 76 139 0 58 -13 95 -48 131 -54 58 -121 72 -192
41z"/>
<path d="M4840 7863 c-86 -13 -197 -42 -355 -93 -237 -76 -288 -84 -450 -77
-72 4 -146 9 -165 13 -34 5 -34 5 -15 -11 76 -61 326 -81 480 -37 43 13 151
50 240 82 88 32 202 71 253 86 115 34 122 55 12 37z"/>
<path d="M5110 7810 c-112 -15 -246 -60 -478 -164 -221 -98 -362 -130 -540
-124 -151 5 -266 42 -414 133 -187 115 -207 126 -241 132 -26 4 -40 -1 -64
-21 -42 -35 -58 -103 -50 -215 23 -348 196 -638 484 -813 166 -100 315 -141
523 -141 150 -1 249 18 388 74 360 143 622 525 623 905 0 60 -5 123 -11 140
-17 45 -59 83 -99 90 -20 3 -43 7 -51 8 -8 2 -40 0 -70 -4z m89 -173 c13 -17
-17 -199 -48 -290 -80 -230 -255 -426 -474 -527 -135 -63 -382 -112 -402 -80
-13 21 7 29 111 44 55 9 131 25 170 37 220 67 410 232 514 444 43 90 64 161
80 285 6 46 14 88 16 92 8 12 20 10 33 -5z"/>
</g>
</svg>
